<svg version="1.1" id="Layer_1" xmlns="http://www.w3.org/2000/svg" xmlns:xlink="http://www.w3.org/1999/xlink" x="0px" y="0px"
	 width="100%" viewBox="0 0 96 96" enable-background="new 0 0 96 96" xml:space="preserve">
<path fill="#000000" opacity="1.000000" stroke="none" 
	d="
M58.000000,97.000000 
	C38.666672,97.000000 19.833340,97.000000 1.000008,97.000000 
	C1.000005,65.000008 1.000005,33.000019 1.000003,1.000021 
	C32.999985,1.000014 64.999969,1.000014 96.999969,1.000007 
	C96.999977,32.999981 96.999977,64.999962 96.999985,96.999969 
	C84.166664,97.000000 71.333336,97.000000 58.000000,97.000000 
M64.958344,78.569878 
	C71.386826,74.793098 73.872925,67.396637 72.181206,60.328487 
	C70.385452,52.825665 64.972321,49.574718 58.707317,47.051449 
	C53.240467,44.849636 47.525604,43.247822 42.115788,40.925575 
	C38.338749,39.304226 36.339157,35.940285 37.079014,31.754810 
	C37.699474,28.244759 39.479885,25.095354 43.596844,24.934544 
	C48.205296,24.754536 53.424740,23.772690 57.270199,25.544613 
	C60.528625,27.046041 62.207928,31.974516 64.900291,35.837341 
	C66.825249,35.837341 69.801224,35.837341 72.889381,35.837341 
	C71.750557,30.014637 70.638634,24.582378 65.464943,20.753496 
	C56.299358,13.970337 46.382816,14.524562 36.769051,18.293070 
	C28.258154,21.629263 23.393217,34.476501 30.297136,42.676727 
	C32.293049,45.047401 34.752357,47.411392 37.505238,48.682941 
	C43.580589,51.489136 50.030392,53.471516 56.225197,56.036854 
	C60.337986,57.740005 63.482506,60.373081 63.019890,65.550484 
	C62.569313,70.593147 59.267384,72.998672 54.904457,73.924324 
	C44.092571,76.218216 37.552177,72.357559 34.197376,62.181301 
	C31.191618,62.181301 28.224350,62.181301 24.572561,62.181301 
	C25.651291,65.974625 25.613674,70.376778 27.791321,72.721619 
	C37.659893,83.347824 51.847923,84.755943 64.958344,78.569878 
z"/>
<path fill="#FFFFFF" opacity="1.000000" stroke="none" 
	d="
M64.664963,78.828171 
	C51.847923,84.755943 37.659893,83.347824 27.791321,72.721619 
	C25.613674,70.376778 25.651291,65.974625 24.572561,62.181301 
	C28.224350,62.181301 31.191618,62.181301 34.197376,62.181301 
	C37.552177,72.357559 44.092571,76.218216 54.904457,73.924324 
	C59.267384,72.998672 62.569313,70.593147 63.019890,65.550484 
	C63.482506,60.373081 60.337986,57.740005 56.225197,56.036854 
	C50.030392,53.471516 43.580589,51.489136 37.505238,48.682941 
	C34.752357,47.411392 32.293049,45.047401 30.297136,42.676727 
	C23.393217,34.476501 28.258154,21.629263 36.769051,18.293070 
	C46.382816,14.524562 56.299358,13.970337 65.464943,20.753496 
	C70.638634,24.582378 71.750557,30.014637 72.889381,35.837341 
	C69.801224,35.837341 66.825249,35.837341 64.900291,35.837341 
	C62.207928,31.974516 60.528625,27.046041 57.270199,25.544613 
	C53.424740,23.772690 48.205296,24.754536 43.596844,24.934544 
	C39.479885,25.095354 37.699474,28.244759 37.079014,31.754810 
	C36.339157,35.940285 38.338749,39.304226 42.115788,40.925575 
	C47.525604,43.247822 53.240467,44.849636 58.707317,47.051449 
	C64.972321,49.574718 70.385452,52.825665 72.181206,60.328487 
	C73.872925,67.396637 71.386826,74.793098 64.664963,78.828171 
z"/>
</svg>